<?xml version="1.0" encoding="UTF-8" standalone="no"?>
<svg xmlns="http://www.w3.org/2000/svg" xmlns:xlink="http://www.w3.org/1999/xlink" width="308.9" height="274.27" version="1.0">
  <defs>
    <linearGradient id="d" x1="277.49" x2="286.71" y1="794.37" y2="776.56" gradientTransform="matrix(.74743 0 0 1.3379 .25 132)" gradientUnits="userSpaceOnUse">
      <stop offset="0" stop-color="#fdf064"/>
      <stop offset="1" stop-color="#c68200"/>
    </linearGradient>
    <linearGradient xlink:href="#a" id="e" x1="296.14" x2="249.34" y1="768.04" y2="819.09" gradientTransform="matrix(.88068 0 0 1.1355 0 280)" gradientUnits="userSpaceOnUse">
      <stop offset="0" stop-color="#5e0000"/>
      <stop offset="1" stop-color="#ae0800"/>
    </linearGradient>
    <linearGradient id="b" x1="433.23" x2="504.9" y1="408.78" y2="408.78" gradientTransform="matrix(.44846 0 0 2.2298 0 280)" gradientUnits="userSpaceOnUse">
      <stop offset="0" stop-color="#fff"/>
      <stop offset="1" stop-color="#fff" stop-opacity="0"/>
    </linearGradient>
    <linearGradient id="c" x1="121.74" x2="116.15" y1="1726.7" y2="1719" gradientTransform="matrix(1.9585 0 0 .51059 0 280)" gradientUnits="userSpaceOnUse">
      <stop offset="0" stop-color="#ebebe2"/>
      <stop offset="1" stop-color="#bcbc8e"/>
    </linearGradient>
    <linearGradient xlink:href="#b" id="h" x1="250.29" x2="252.1" y1="868.12" y2="885.65" gradientTransform="matrix(.83406 0 0 1.199 0 132)"/>
    <linearGradient xlink:href="#b" id="j" x1="126.14" x2="115.17" y1="1985.5" y2="1976.4" gradientTransform="matrix(1.9379 0 0 .51603 0 140)"/>
    <linearGradient id="a" x1="205.99" x2="211.85" y1="1137.6" y2="1082.9" gradientTransform="matrix(1.176 0 0 .85037 0 280)" gradientUnits="userSpaceOnUse" spreadMethod="reflect">
      <stop offset="0" stop-color="#568953"/>
      <stop offset="1" stop-color="#1b4c1f"/>
    </linearGradient>
    <linearGradient xlink:href="#c" id="l" x1="131.92" x2="189.14" y1="1448.5" y2="1448.5" gradientTransform="matrix(1.5147 0 0 .66019 0 280)"/>
    <linearGradient xlink:href="#b" id="m" x1="143.16" x2="164.79" y1="1700.8" y2="1776.3" gradientTransform="matrix(1.615 0 0 .61918 0 140)"/>
    <linearGradient xlink:href="#d" id="n" x1="191.07" x2="191.07" y1="1478.2" y2="1444.9" gradientTransform="matrix(1.3622 0 0 .73409 0 140)"/>
    <linearGradient xlink:href="#c" id="p" x1="140.26" x2="157.33" y1="1696.2" y2="1634.5" gradientTransform="matrix(1.5147 0 0 .66019 0 140)"/>
    <linearGradient id="r" x1="140.18" x2="147.69" y1="1674.5" y2="1669.3" gradientTransform="matrix(1.5147 0 0 .66019 0 140)"/>
    <linearGradient xlink:href="#d" id="s" x1="223.66" x2="226.88" y1="1000.9" y2="985.93" gradientTransform="matrix(.90728 0 0 1.1022 0 140)" spreadMethod="reflect"/>
    <linearGradient xlink:href="#b" id="t" x1="211.96" x2="212.01" y1="1048.1" y2="1068.4" gradientTransform="matrix(.96515 0 0 1.0361 0 140)"/>
    <linearGradient xlink:href="#b" id="u" x1="196.65" x2="182.97" y1="1437.3" y2="1493.9" gradientTransform="matrix(1.3622 0 0 .73409 0 140)"/>
    <linearGradient xlink:href="#d" id="g" x1="277.49" x2="286.71" y1="794.37" y2="776.56" gradientTransform="matrix(.74743 0 0 1.3379 .25 132)" gradientUnits="userSpaceOnUse"/>
    <linearGradient xlink:href="#b" id="q" x1="175.51" x2="167.52" y1="1674.5" y2="1667" gradientTransform="matrix(1.5147 0 0 .66019 0 140)"/>
    <linearGradient xlink:href="#b" id="v" x1="122.26" x2="116.05" y1="36.737" y2="10.674" gradientUnits="userSpaceOnUse"/>
    <linearGradient xlink:href="#b" id="f" x1="241.41" x2="243.66" y1="998.7" y2="1051.4" gradientTransform="matrix(.99134 0 0 1.0087 0 140)"/>
    <radialGradient id="k" cx="169.88" cy="1794.9" r="44.525" gradientTransform="scale(1.4598 .685)" gradientUnits="userSpaceOnUse">
      <stop offset="0" stop-opacity=".4"/>
      <stop offset="1" stop-opacity="0"/>
    </radialGradient>
  </defs>
  <g transform="translate(-445.8594 -2757.968) scale(2.3964)">
    <path fill="url(#e)" stroke="#000" d="m202.47 1162 46.06-10.6 14.17 3.5-3.54 56.7-42.52 17.7-14.17-10.6V1162z"/>
    <path fill="url(#b)" d="M203.93 1163.2v54.3l12.86 9.6v-58.9c-6.59-.1-11.4-3.1-12.86-5z" opacity=".5"/>
    <path id="i" fill="url(#c)" stroke="#000" stroke-opacity=".2" d="M207.06 1162.3c1.91 2 5.06 3.8 9.45 3.9l42.77-11.7-9.22-2.2-43 10z"/>
    <path fill="url(#f)" d="m218.75 1168.2 41.25-11.4-.75 24.4c-1.42 26.9-31.08-18.8-40.5 16.3v-29.3z" opacity=".5"/>
    <path fill="url(#g)" stroke="#000" stroke-opacity=".39216" d="M202.66 1172.3c3.53 3.4 8.66 5.9 13.96 5.8l-.17 20.2c-4.66-.5-11.08-2.9-13.61-6.7l-.18-19.3z"/>
    <path fill="url(#h)" d="M203.85 1175.1c2.17 2.5 7.57 4.7 11.24 4.5 0 3.6.66 8.9-1.13 10.1-3.4 2.3-5.29-10.3-9.96-3.9-.17-3.5.02-7.3-.15-10.7z"/>
    <use xlink:href="#i" width="308.90109" height="274.26697" fill="url(#j)" stroke-opacity=".2"/>
    <path fill="url(#k)" d="M313 1229.5c0 16.8-29.1 30.5-65 30.5s-65-13.7-65-30.5 29.1-30.5 65-30.5 65 13.7 65 30.5z" transform="matrix(.57678 -.12442 -.02666 .73838 147.49 344.51)"/>
    <path fill="url(#a)" stroke="#000" d="m199.43 1218.2 53.14-21.3 35.44 21.3v14.2l-53.15 28.3-35.43-28.3v-14.2z"/>
    <path id="o" fill="url(#l)" stroke="#000" stroke-opacity=".19608" stroke-width="2" d="m287.32 1219.6-52.5 26.8-34.64-25.5-.36 8.9 35.18 28.1 52-27.5.32-10.8z"/>
    <path fill="url(#m)" d="m203.65 1218.8 48.79-20.1 32.17 19.8c-6.25 3.2-15.54 7.6-21.21 8.5-25.44 3.8-17.33-13.1-59.75-8.2z" opacity=".5"/>
    <path fill="url(#n)" stroke="#000" stroke-opacity=".4" d="m252.25 1200.8-15.5 6.4 28.25 17.3 15-6.5-27.75-17.2z"/>
    <use xlink:href="#o" width="308.90109" height="274.26697" fill="url(#p)" stroke="#000" stroke-opacity=".19608"/>
    <path fill="url(#q)" d="m287.32 1219.6-52.5 26.8.18 11.5 52-27.5.32-10.8z"/>
    <path fill="url(#r)" d="m234.82 1246.4-34.64-25.5-.36 8.9 35.18 28.1-.18-11.5z"/>
    <path fill="url(#s)" stroke="#000" d="M203.48 1227.2c3.36 2.8 6.72 5.5 10.08 8.3-4.23 1.4-4.95 16.8-14.18 17.7 1.57-5.2 1.64-8.3 1.71-12.3-2.43 1.5-6.36 2.7-8.79 1.7 6.73-4.9 7.45-14.5 11.18-15.4z"/>
    <path fill="url(#t)" d="M202.49 1229.6c-.94.6-2.08 4.4-3.44 7.1 3.18-3.1 4.35 7.1 7.43 6.9 1.82-.2 2.92-4.4 3.84-6.8.86-2.3-6.36-8.2-7.83-7.2z"/>
    <path fill="url(#u)" d="m252.12 1202.2-12.5 5.2c11.96-3.7 18.76 5.9 25.63 11.5 4.76 3.8 14.83-1 7.87-4.1l-21-12.6z"/>
  </g>
  <path fill="url(#v)" d="M50.339 27.464C84.307 19.542 118.8 11.498 153.359 3.44c8.09 1.9276 12.2 2.9142 22.12 5.3024-34.11 9.3226-68.15 18.797-102.88 27.995-3.476-.52-10.012-.719-14.718-3.787-4.706-3.069-5.007-3.461-7.543-5.486z"/>
</svg>